<?xml version="1.0" encoding="utf-8"?>
<!-- Generator: Adobe Illustrator 23.0.1, SVG Export Plug-In . SVG Version: 6.00 Build 0)  -->
<svg version="1.1" id="Слой_1" xmlns="http://www.w3.org/2000/svg" xmlns:xlink="http://www.w3.org/1999/xlink" x="0px" y="0px"
	 viewBox="0 0 480 480" style="enable-background:new 0 0 480 480;" xml:space="preserve">
<style type="text/css">
	.st0{fill:#EAEA06;}
</style>
<path class="st0" d="M360,240c0,66.3-53.7,120-120,120s-120-53.7-120-120s53.7-120,120-120S360,173.7,360,240z"/>
<g>
	<path class="st0" d="M240,368c-70.7,0-128-57.3-128-128s57.3-128,128-128s128,57.3,128,128C367.9,310.7,310.7,367.9,240,368z
		 M240,128c-61.9,0-112,50.1-112,112s50.1,112,112,112s112-50.1,112-112C351.9,178.2,301.8,128.1,240,128z"/>
	<path class="st0" d="M240,96c-4.4,0-8-3.6-8-8V8c0-4.4,3.6-8,8-8s8,3.6,8,8v80C248,92.4,244.4,96,240,96z"/>
	<path class="st0" d="M132.5,140.5c-2.1,0-4.2-0.8-5.7-2.3L70.3,81.6c-2.2-2-3.1-5-2.3-7.9c0.7-2.8,2.9-5.1,5.8-5.8
		c2.8-0.7,5.9,0.2,7.9,2.3l56.6,56.6c2.3,2.3,3,5.7,1.7,8.7S135.7,140.5,132.5,140.5L132.5,140.5z"/>
	<path class="st0" d="M88,248H8c-4.4,0-8-3.6-8-8s3.6-8,8-8h80c4.4,0,8,3.6,8,8S92.4,248,88,248z"/>
	<path class="st0" d="M76,412c-3.2,0-6.2-1.9-7.4-4.9s-0.6-6.4,1.7-8.7l56.6-56.6c3.1-3,8.1-3,11.2,0.1s3.1,8.1,0.1,11.2l-56.6,56.6
		C80.1,411.2,78.1,412,76,412z"/>
	<path class="st0" d="M240,480c-4.4,0-8-3.6-8-8v-80c0-4.4,3.6-8,8-8s8,3.6,8,8v80C248,476.4,244.4,480,240,480z"/>
	<path class="st0" d="M404,412c-2.1,0-4.2-0.8-5.7-2.3l-56.6-56.6c-3-3.1-3-8.1,0.1-11.2s8.1-3.1,11.2-0.1l56.6,56.6
		c2.3,2.3,3,5.7,1.7,8.7S407.3,412.1,404,412L404,412z"/>
	<path class="st0" d="M472,248h-80c-4.4,0-8-3.6-8-8s3.6-8,8-8h80c4.4,0,8,3.6,8,8S476.4,248,472,248z"/>
	<path class="st0" d="M347.5,140.5c-3.2,0-6.2-1.9-7.4-4.9s-0.6-6.4,1.7-8.7l56.6-56.6c2-2.2,5-3.1,7.9-2.3c2.8,0.7,5.1,2.9,5.8,5.8
		c0.7,2.8-0.2,5.9-2.3,7.9l-56.6,56.6C351.6,139.7,349.6,140.5,347.5,140.5z"/>
</g>
</svg>
