<svg height="480pt" viewBox="0 -8 480.10634 480" width="480pt" xmlns="http://www.w3.org/2000/svg"><path d="m392.058594 184.035156c-1.359375 0-2.71875 0-4 .082032 2.640625-10.492188 3.984375-21.265626 4-32.082032 0-70.691406-57.304688-128-128-128-70.691406 0-128 57.308594-128 128 0 1.839844 0 3.679688.160156 5.519532-40.144531-14.214844-84.859375-.351563-109.917969 34.082031-21.152343 29.230469-24.140625 67.847656-7.742187 99.988281 16.398437 32.136719 49.421875 52.378906 85.5 52.410156h288c44.183594 0 80-35.816406 80-80s-35.816406-80-80-80zm0 0" fill="#9bc9ff"/><g fill="#1e81ce"><path d="m240.058594 464.035156c-17.671875 0-32-14.324218-32-32 0-14.605468 20.839844-52.480468 25.027344-59.910156l6.972656-12.425781 6.976562 12.425781c4.226563 7.429688 25.023438 45.304688 25.023438 59.910156 0 17.675782-14.324219 32-32 32zm0-71.101562c-7.121094 12.226562-12.507813 25.386718-16 39.101562 0 8.835938 7.164062 16 16 16 8.839844 0 16-7.164062 16-16-3.488282-13.714844-8.875-26.875-16-39.101562zm0 0"/><path d="m144.058594 464.035156c-17.671875 0-32-14.324218-32-32 0-14.605468 20.839844-52.480468 25.027344-59.910156l6.972656-12.425781 6.976562 12.425781c4.226563 7.429688 25.023438 45.304688 25.023438 59.910156 0 17.675782-14.324219 32-32 32zm0-71.101562c-7.121094 12.226562-12.507813 25.386718-16 39.101562 0 8.835938 7.164062 16 16 16 8.839844 0 16-7.164062 16-16-3.488282-13.714844-8.875-26.875-16-39.101562zm0 0"/><path d="m336.058594 464.035156c-17.671875 0-32-14.324218-32-32 0-14.605468 20.800781-52.480468 25.027344-59.910156l6.972656-12.425781 6.976562 12.425781c4.226563 7.429688 25.023438 45.304688 25.023438 59.910156 0 17.675782-14.324219 32-32 32zm0-71.101562c-7.121094 12.226562-12.507813 25.386718-16 39.101562 0 8.835938 7.164062 16 16 16 8.839844 0 16-7.164062 16-16-3.488282-13.714844-8.875-26.875-16-39.101562zm0 0"/><path d="m397.917969 176.226562c1.417969-7.984374 2.136719-16.078124 2.140625-24.191406.027344-46.226562-23.441406-89.300781-62.300782-114.335937-38.859374-25.039063-87.78125-28.609375-129.867187-9.480469-47.886719-38.460938-116.359375-37.429688-163.066406 2.457031-46.710938 39.886719-58.453125 107.351563-27.964844 160.671875-20.789063 31.976563-22.40625 72.769532-4.214844 106.292969 18.191407 33.523437 53.273438 54.398437 91.414063 54.394531h288c47.480468.027344 86.417968-37.617187 88-85.070312 1.578125-47.453125-34.765625-87.601563-82.140625-90.738282zm-269.859375-160.191406c23.039062-.011718 45.519531 7.109375 64.34375 20.386719-.964844.597656-1.886719 1.253906-2.839844 1.871094-1.09375.710937-2.199219 1.414062-3.261719 2.152343-1.417969.984376-2.792969 2.015626-4.167969 3.046876-.960937.726562-1.945312 1.433593-2.890624 2.175781-1.492188 1.183593-2.925782 2.398437-4.367188 3.664062-.757812.65625-1.550781 1.289063-2.296875 1.960938-2.132813 1.933593-4.207031 3.933593-6.230469 5.992187-.191406.191406-.359375.398438-.550781.597656-1.808594 1.878907-3.5625 3.804688-5.265625 5.785157-.671875.800781-1.289062 1.601562-1.933594 2.398437-1.167968 1.433594-2.34375 2.859375-3.449218 4.335938-.710938.953125-1.382813 1.9375-2.074219 2.90625-.972657 1.367187-1.941407 2.734375-2.863281 4.136718-.6875 1.054688-1.335938 2.125-2 3.199219-.800782 1.375-1.679688 2.75-2.480469 4.152344-.628907 1.121094-1.238281 2.253906-1.839844 3.398437-.742187 1.402344-1.46875 2.808594-2.167969 4.242188-.566406 1.167969-1.109375 2.34375-1.648437 3.535156-.644531 1.4375-1.269531 2.886719-1.871094 4.359375-.496094 1.207031-.976563 2.398438-1.4375 3.65625-.554687 1.488281-1.074219 2.984375-1.601563 4.488281-.414062 1.238282-.800781 2.480469-1.214843 3.742188-.472657 1.546875-.890625 3.105469-1.304688 4.664062-.328125 1.25-.671875 2.488282-.960937 3.746094-.390625 1.648438-.710938 3.320313-1.039063 4.984375-.234375 1.199219-.496093 2.398438-.695312 3.597657-.3125 1.863281-.546875 3.753906-.800781 5.601562-.128907 1.039062-.296876 2.0625-.410157 3.105469-.292969 2.933593-.511719 5.894531-.621093 8.878906-7.886719-1.855469-15.957032-2.78125-24.058594-2.761719-3.898438.015625-7.789063.25-11.664063.703125-1.253906.136719-2.488281.402344-3.734375.585938-2.585937.390625-5.152344.800781-7.6875 1.390625-1.449218.335937-2.863281.753906-4.289062 1.144531-2.304688.632813-4.582032 1.304687-6.832032 2.089844-1.449218.503906-2.871093 1.0625-4.296874 1.597656-2.175782.863281-4.3125 1.800781-6.398438 2.816406-1.375.65625-2.746094 1.328125-4.097656 2.046875-2.101563 1.128906-4.152344 2.355469-6.175782 3.617188-1.238281.800781-2.480468 1.519531-3.6875 2.351562-2.136718 1.457032-4.175781 3.050782-6.207031 4.671875-.984375.800781-2 1.519531-2.960937 2.34375-2.691406 2.324219-5.265625 4.78125-7.703125 7.371094-.207031.222656-.449219.421875-.664063.644531l-.070312.074219c-17.082032-34.710937-15.039063-75.78125 5.402344-108.625 20.4375-32.84375 56.382812-52.816406 95.066406-52.824219zm264 320h-288c-48.597656 0-88-39.398437-88-88 0-48.601562 39.402344-88 88-88 10.035156-.035156 20 1.671875 29.449218 5.050782 2.5625.921874 5.417969.476562 7.582032-1.183594 2.160156-1.660156 3.328125-4.304688 3.097656-7.019532-.128906-1.648437-.128906-3.246093-.128906-4.847656 0-8.449218.875-16.875 2.617187-25.144531.710938-3.375 1.601563-6.6875 2.609375-9.964844 17.351563-56.867187 73.722656-92.453125 132.523438-83.660156 58.800781 8.792969 102.296875 59.316406 102.25 118.769531-.015625 10.164063-1.277344 20.285156-3.757813 30.136719-.621093 2.46875-.023437 5.085937 1.597657 7.046875 1.648437 1.941406 4.105468 3.007812 6.648437 2.882812 1.113281-.066406 2.304687-.066406 3.511719-.066406 39.765625 0 72 32.238282 72 72 0 39.765625-32.234375 72-72 72zm0 0"/></g></svg>